<svg xmlns="http://www.w3.org/2000/svg" width="31.5" height="35" viewBox="0 0 31.5 35">
  <g id="ico_notif" transform="translate(-23.5 -21)">
    <g id="Group_351" data-name="Group 351" transform="translate(23.5 21)">
      <g id="Group_350" data-name="Group 350">
        <path id="Path_181" data-name="Path 181" d="M39.25,21A4.7,4.7,0,0,1,44,25.406,11.862,11.862,0,0,1,51.434,36.33v6.086A3.808,3.808,0,0,1,55,46.165v2.316A2.053,2.053,0,0,1,52.918,50.5H25.582A2.052,2.052,0,0,1,23.5,48.481V46.165a3.808,3.808,0,0,1,3.566-3.749V36.33A11.865,11.865,0,0,1,34.5,25.406,4.7,4.7,0,0,1,39.25,21ZM52.028,47.612V46.165a.884.884,0,0,0-.893-.868,2.638,2.638,0,0,1-2.673-2.6V36.33a9,9,0,0,0-6.4-8.541l-1.032-.322V25.623a1.784,1.784,0,0,0-3.566,0v1.845l-1.032.322a9,9,0,0,0-6.4,8.54V42.7a2.64,2.64,0,0,1-2.673,2.6.884.884,0,0,0-.893.868v1.446ZM33.6,50.5h2.972a2.676,2.676,0,0,0,5.349,0H44.9a5.648,5.648,0,0,1-11.292,0Z" transform="translate(-23.5 -21)" fill="#fff"/>
      </g>
    </g>
  </g>
</svg>
