<svg xmlns="http://www.w3.org/2000/svg" width="100" height="100" viewBox="0 0 100 100">
  <g id="ico_success" transform="translate(-0.88 -0.88)">
    <path id="Path_240" data-name="Path 240" d="M94.323,26.177,88,33.563A41.059,41.059,0,1,1,77.04,19.384l5.869-6.854A50.025,50.025,0,1,0,94.323,26.177Z" transform="translate(0 0)" fill="#28b928"/>
    <path id="Path_241" data-name="Path 241" d="M62.8,74.189h0a4.727,4.727,0,0,1-3.6-1.659L38.645,48.42a4.723,4.723,0,0,1,7.184-6.132l16.979,19.9L97.961,21.153a4.722,4.722,0,1,1,7.171,6.145L66.39,72.536A4.74,4.74,0,0,1,62.8,74.189Z" transform="translate(-11.921 -6.06)" fill="#28b928"/>
  </g>
</svg>
