<svg xmlns="http://www.w3.org/2000/svg" width="14.768" height="16" viewBox="0 0 14.768 16">
  <g id="share-social-interface-button" transform="translate(-25.5)">
    <g id="_x35__27_" transform="translate(25.5)">
      <g id="Group_1073" data-name="Group 1073">
        <path id="Path_408" data-name="Path 408" d="M37.191,9.846A3.067,3.067,0,0,0,34.6,11.269L31.31,9.386a2.892,2.892,0,0,0,.2-2.27l3.428-1.959a3.067,3.067,0,1,0-.822-2.08,3.049,3.049,0,0,0,.145.884L30.831,5.921a3.08,3.08,0,1,0-.4,4.517l-.012.024,3.725,2.129a3.119,3.119,0,0,0-.033.332,3.077,3.077,0,1,0,3.077-3.077Zm0-8.615a1.846,1.846,0,1,1-1.846,1.846A1.846,1.846,0,0,1,37.191,1.231ZM28.577,9.846A1.846,1.846,0,1,1,30.423,8,1.846,1.846,0,0,1,28.577,9.846Zm8.614,4.923a1.846,1.846,0,1,1,1.846-1.846A1.846,1.846,0,0,1,37.191,14.769Z" transform="translate(-25.5)" fill="#c92127"/>
      </g>
    </g>
  </g>
</svg>
