<svg xmlns="http://www.w3.org/2000/svg" width="18.502" height="18.5" viewBox="0 0 18.502 18.5"><defs><style>.a{fill:#2489f4;stroke:#2489f4;stroke-width:0.5px;}</style></defs><g transform="translate(-4.75 -4.75)"><path class="a" d="M22.233,11.4a3.038,3.038,0,0,0-2.239-1H17.958L18.6,8.867a2.8,2.8,0,0,0-.237-2.633A2.912,2.912,0,0,0,15.991,5a1.971,1.971,0,0,0-1.662.9l-4.1,6.333H5V23H19.078a3.012,3.012,0,0,0,2.985-2.567l.916-6.7A2.923,2.923,0,0,0,22.233,11.4ZM9.919,21.667H6.357v-8.1H9.919Zm11.7-8.133-.916,6.733a1.636,1.636,0,0,1-1.628,1.4h-7.8v-8.6L15.482,6.6a.6.6,0,0,1,.509-.267,1.445,1.445,0,0,1,1.221.633,1.4,1.4,0,0,1,.136,1.367L15.889,11.7H19.96a1.571,1.571,0,0,1,1.221.567A1.447,1.447,0,0,1,21.622,13.533Z"/></g></svg>