<svg xmlns="http://www.w3.org/2000/svg" xmlns:xlink="http://www.w3.org/1999/xlink" width="24" height="24" viewBox="0 0 24 24">
  <defs>
    <linearGradient id="linear-gradient" x1="0.164" y1="0.855" x2="0.855" y2="0.158" gradientUnits="objectBoundingBox">
      <stop offset="0" stop-color="#2f80ed"/>
      <stop offset="1" stop-color="#56ccf2"/>
    </linearGradient>
  </defs>
  <g id="ico_dacquyen_24x24" transform="translate(-9144 1360)">
    <circle id="Ellipse_32" data-name="Ellipse 32" cx="12" cy="12" r="12" transform="translate(9144 -1360)" fill="url(#linear-gradient)"/>
    <g id="Group_495" data-name="Group 495" transform="translate(9149 -1354.999)">
      <path id="Path_258" data-name="Path 258" d="M190.337,52.691l1.688,3.58a.617.617,0,0,0,.462.351l3.775.574a.65.65,0,0,1,.34,1.095l-2.731,2.787a.661.661,0,0,0-.176.568l.645,3.935a.619.619,0,0,1-.89.677L190.072,64.4a.589.589,0,0,0-.571,0l-3.376,1.858a.619.619,0,0,1-.89-.677l.645-3.935a.661.661,0,0,0-.176-.568l-2.731-2.787a.65.65,0,0,1,.34-1.095l3.775-.574a.617.617,0,0,0,.462-.351l1.688-3.58A.6.6,0,0,1,190.337,52.691Z" transform="translate(-182.787 -52.333)" fill="#fff"/>
    </g>
  </g>
</svg>
