<svg xmlns="http://www.w3.org/2000/svg" xmlns:xlink="http://www.w3.org/1999/xlink" width="90" height="90" viewBox="0 0 90 90">
  <defs>
    <clipPath id="clip-path">
      <path id="Path_419" data-name="Path 419" d="M287.5,131.769v2.024a45.842,45.842,0,0,1-1.012,7.757c-.225.9-.45,1.686-.674,2.586a44.952,44.952,0,0,1-86.428.112c-.112-.45-.225-.787-.337-1.237a42.459,42.459,0,0,1-1.349-9.219v-2.024a44.9,44.9,0,1,1,89.8,0Z" transform="translate(-197.7 -86.8)"/>
    </clipPath>
  </defs>
  <g id="ico_couponemty" transform="translate(-197.5 -86.8)">
    <path id="Path_358" d="M287.5,131.769v2.024a45.842,45.842,0,0,1-1.012,7.757c-.225.9-.45,1.686-.674,2.586a44.952,44.952,0,0,1-86.428.112c-.112-.45-.225-.787-.337-1.237a42.459,42.459,0,0,1-1.349-9.219v-2.024a44.9,44.9,0,1,1,89.8,0Z" transform="translate(0 0)" fill="#f1f1f2"/>
    <path id="Path_359" d="M287.4,127.5a37.429,37.429,0,0,1-1.011,7.1c-.225.8-.449,1.6-.674,2.3a44.983,44.983,0,0,1-11.8,13.8c-.674.6-1.461,1.1-2.135,1.6a50.293,50.293,0,0,1-26.071,9c-1.124.1-2.247.1-3.259.1H240.2a51.115,51.115,0,0,1-27.082-9c-.787-.5-1.461-1.1-2.247-1.6a47.1,47.1,0,0,1-11.687-13.6c-.112-.4-.225-.8-.337-1.1a35.525,35.525,0,0,1-1.348-8.4,25.787,25.787,0,0,1,7.754-1.4,15.449,15.449,0,0,1,5.619,1,9.477,9.477,0,0,1,2.247,1.2c4.945,3.4,5.844,9.7,13.373,9.7,10.451,0,10.226-11.9,25.06-11.9s9.552,11.9,17.755,11.9a6.511,6.511,0,0,0,2.36-.4,8.142,8.142,0,0,0,2.135-1C277.848,134.5,280.882,129.8,287.4,127.5Z" transform="translate(0 9.945)" fill="#dcdcdc"/>
    <path id="Path_360" d="M286.5,134.6c-.225.8-.451,1.6-.676,2.3a40.53,40.53,0,0,1-13.98,19.9c-16.686,13.3-42.053,13.3-58.738,0a40.97,40.97,0,0,1-13.867-19.7c-.113-.4-.225-.8-.338-1.1a23,23,0,0,1,9.019-1.9,14.78,14.78,0,0,1,5.186.9c6.539,2.6,6.539,10.2,14.656,10.2,9.809,0,9.583-11.1,23.337-11.1,13.867,0,8.907,11.1,16.573,11.1a7.523,7.523,0,0,0,4.171-1.3C275.79,141.5,278.946,136.4,286.5,134.6Z" transform="translate(0 9.945)" fill="#d3d3d3"/>
    <g id="Group_822" data-name="Group 822" transform="translate(197.7 86.8)">
      <g id="Group_818" data-name="Group 818">
        <g id="Group_817" data-name="Group 817" clip-path="url(#clip-path)">
          <path id="Path_417" data-name="Path 417" d="M208,123.412v15.177h.337a8.657,8.657,0,0,1,0,17.313H208v14.5h18.882V123.3H208Z" transform="translate(-196.424 -82.266)" fill="#d3d3d3"/>
          <path id="Path_418" data-name="Path 418" d="M271.9,155.516a8.207,8.207,0,0,1,0-16.414,3.111,3.111,0,0,1,1.012.112V123.7H224.7v46.88h48.215V155.516Z" transform="translate(-194.355 -82.216)" fill="#d3d3d3"/>
          <g id="ico_coupongreen" transform="translate(9.431 40.007)">
            <path id="Path_384" d="M80.983,27.637,14.448,27.3a1.9,1.9,0,0,0-1.911,1.911L12.425,43.6a2.075,2.075,0,0,0,.562,1.349,2.367,2.367,0,0,0,1.461.562h.337a6.8,6.8,0,0,1-.112,13.6h-.337a3.187,3.187,0,0,0-1.461.45,2.138,2.138,0,0,0-.562,1.461L12.2,75.192A1.9,1.9,0,0,0,14.111,77.1l66.535.337a1.9,1.9,0,0,0,1.911-1.911l.225-14.5a1.9,1.9,0,0,0-1.911-1.911,6.8,6.8,0,0,1,.112-13.6A1.9,1.9,0,0,0,82.894,43.6l.112-14.39A2.059,2.059,0,0,0,80.983,27.637Zm-1.911,14.39a10.577,10.577,0,0,0-.112,20.8v10.68l-43.72-.225V71.819a1.8,1.8,0,0,0-1.911-1.8,1.775,1.775,0,0,0-1.8,1.8v1.462l-15.285-.112V62.488a10.567,10.567,0,0,0,.112-20.911V30.9l15.173.112v1.461a1.8,1.8,0,0,0,1.911,1.8,1.776,1.776,0,0,0,1.8-1.8V31.01l43.832.225Z" transform="translate(-12.2 -27.3)" fill="#979697"/>
            <path id="Path_385" d="M31.335,38A2.192,2.192,0,0,0,29.2,40.024v6.858a2.08,2.08,0,1,0,4.158.112h0V40.136A2.043,2.043,0,0,0,31.335,38Z" transform="translate(-10.094 -25.971)" fill="#979697"/>
            <path id="Path_386" d="M31.235,51.1A2.192,2.192,0,0,0,29.1,53.124v6.858a2.08,2.08,0,1,0,4.158.112h0V53.236A1.974,1.974,0,0,0,31.235,51.1Z" transform="translate(-10.106 -24.343)" fill="#979697"/>
          </g>
        </g>
      </g>
      <g id="Group_820" data-name="Group 820">
        <g id="Group_819" data-name="Group 819" clip-path="url(#clip-path)">
          <path id="Path_420" data-name="Path 420" d="M235.742,96.4l-2.7,4.272h.112a2.931,2.931,0,0,1-3.147,4.947H229.9l-2.7,4.16,5.62,3.71,8.542-13.266Z" transform="translate(-194.045 -85.607)" fill="#c4c3c3"/>
          <path id="Path_421" data-name="Path 421" d="M247.872,117.138a2.759,2.759,0,0,1,3.035-4.609c.112,0,.112.112.225.225l2.81-4.384-13.6-8.769L231.8,112.753l13.6,8.769,2.7-4.272C248.209,117.363,248.1,117.138,247.872,117.138Z" transform="translate(-193.475 -85.21)" fill="#c4c3c3"/>
          <g id="ico_coupongreen_1_" transform="translate(32.622 10.485)">
            <path id="Path_384_3_" d="M60.893,13.361,42.124,1.107C41.9,1,41.45,1,41.337,1.332L38.752,5.379c-.112.112-.112.225-.112.45,0,.112.112.225.225.337l.112.112a2.421,2.421,0,0,1,.674,3.148A2.419,2.419,0,0,1,36.5,10.1h0l-.112-.112c-.112-.112-.225-.112-.562-.112-.112,0-.337.112-.337.225l-2.585,4.047a.88.88,0,0,0,.112.9L51.79,27.3a.88.88,0,0,0,.9-.112l2.585-4.047a.88.88,0,0,0-.112-.9,2.421,2.421,0,0,1-.674-3.148,2.419,2.419,0,0,1,3.147-.675.88.88,0,0,0,.9-.112l2.585-4.047C61.231,13.811,61.118,13.474,60.893,13.361Zm-3.147,3.71a3.509,3.509,0,0,0-4.608,1.911,3.823,3.823,0,0,0,.787,4.047l-1.911,2.923L39.764,17.971l.225-.337a.735.735,0,0,0-.225-.9.88.88,0,0,0-.9.112l-.225.337-4.271-2.811L36.28,11.45a3.852,3.852,0,0,0,4.833-1.686,3.606,3.606,0,0,0-.9-4.16l1.8-3.035,4.271,2.923-.225.337a.735.735,0,0,0,.225.9.88.88,0,0,0,.9-.112l.225-.337,12.251,7.982Z" transform="translate(-32.834 -1.04)" fill="#979697"/>
            <path id="Path_385_3_" d="M44.261,7.213a.607.607,0,0,0-.9.225L42.013,9.349a.655.655,0,1,0,1.124.675h0l1.349-1.911A.705.705,0,0,0,44.261,7.213Z" transform="translate(-31.712 -0.288)" fill="#979697"/>
            <path id="Path_386_3_" d="M41.848,10.813a.607.607,0,0,0-.9.225l-1.236,1.911a.655.655,0,1,0,1.124.675h0l1.236-1.911A.991.991,0,0,0,41.848,10.813Z" transform="translate(-31.997 0.159)" fill="#979697"/>
          </g>
        </g>
      </g>
    </g>
  </g>
</svg>
