<svg xmlns="http://www.w3.org/2000/svg" xmlns:xlink="http://www.w3.org/1999/xlink" width="24" height="24" viewBox="0 0 24 24">
  <defs>
    <linearGradient id="linear-gradient" x1="0.855" y1="0.164" x2="0.132" y2="0.836" gradientUnits="objectBoundingBox">
      <stop offset="0" stop-color="#6bdaf9"/>
      <stop offset="1" stop-color="#138eed"/>
    </linearGradient>
  </defs>
  <g id="ico_seriesbo" transform="translate(816.209 -11656.791)">
    <g id="Group_917" data-name="Group 917" transform="translate(-816.698 11656.302)" opacity="0.9">
      <g id="ico_mgg" transform="translate(0 0)">
        <circle id="Ellipse_45" data-name="Ellipse 45" cx="12" cy="12" r="12" transform="translate(0.489 0.489)" fill="url(#linear-gradient)"/>
      </g>
    </g>
    <g id="ico-book-fill-02-01" transform="translate(-812.04 11662.745)">
      <path id="Path_678" data-name="Path 678" d="M16.592,4.155A7.445,7.445,0,0,0,9.31,3.944a7.445,7.445,0,0,0-7.282.211A1.076,1.076,0,0,0,1.5,5v9.5c0,.317.106.95.528.739a7.613,7.613,0,0,1,7.071,0h.422a7.613,7.613,0,0,1,7.071,0c.422.211.528-.422.528-.739V5A.869.869,0,0,0,16.592,4.155Z" transform="translate(-1.5 -3.098)" fill="#fff"/>
    </g>
  </g>
</svg>
