<svg xmlns="http://www.w3.org/2000/svg" width="22.662" height="16" viewBox="0 0 22.662 16">
  <g id="ico_coupon_orange" transform="translate(-12.7 -23.7)">
    <path id="Path_384" data-name="Path 384" d="M13.308,39.7H34.753a.61.61,0,0,0,.608-.608V34.468a.552.552,0,0,0-.183-.426.769.769,0,0,0-.456-.183H34.6a2.19,2.19,0,0,1,0-4.38h.122a.82.82,0,0,0,.456-.152.619.619,0,0,0,.183-.456V24.308a.61.61,0,0,0-.608-.608H13.308a.61.61,0,0,0-.608.608v4.624a.61.61,0,0,0,.608.608,2.19,2.19,0,1,1,0,4.38.61.61,0,0,0-.608.608v4.624A.6.6,0,0,0,13.308,39.7Zm.608-4.654a3.4,3.4,0,0,0,0-6.692V24.917H28v.456a.608.608,0,1,0,1.217,0v-.456h4.928v3.437a3.412,3.412,0,0,0,0,6.753v3.437h-4.9v-.456a.608.608,0,0,0-1.217,0v.456H13.917Z" transform="translate(0 0)" fill="#f7941e"/>
    <path id="Path_385" data-name="Path 385" d="M63.626,55.587a.527.527,0,0,0,.526-.526V53.326a.526.526,0,0,0-1.052,0v1.735A.527.527,0,0,0,63.626,55.587Z" transform="translate(-34.951 -19.945)" fill="#f7941e"/>
    <path id="Path_386" data-name="Path 386" d="M63.626,39.487a.527.527,0,0,0,.526-.526V37.226a.526.526,0,1,0-1.052,0v1.735A.527.527,0,0,0,63.626,39.487Z" transform="translate(-34.951 -8.91)" fill="#f7941e"/>
  </g>
</svg>
