<svg xmlns="http://www.w3.org/2000/svg" width="60" height="61.365" viewBox="0 0 60 61.365">
  <g id="ico_promotionblue" transform="translate(-6.001 -5)">
    <path id="Path_391" data-name="Path 391" d="M50.6,21.088a1.363,1.363,0,0,1,0,1.928L23.335,50.276a1.363,1.363,0,1,1-1.928-1.928l27.261-27.26A1.363,1.363,0,0,1,50.6,21.088Zm.4,22.982a6.606,6.606,0,1,1-6.606-6.606,6.606,6.606,0,0,1,6.606,6.606Zm-2.727,0a3.879,3.879,0,1,0-3.879,3.879,3.879,3.879,0,0,0,3.879-3.879ZM21.007,27.295A6.606,6.606,0,1,1,27.613,33.9,6.606,6.606,0,0,1,21.007,27.295Zm2.727,0a3.879,3.879,0,1,0,3.879-3.879,3.879,3.879,0,0,0-3.879,3.879ZM63.32,35.327a.726.726,0,0,0,0,.711l2.241,4.02a3.449,3.449,0,0,1-1.029,4.508l-3.763,2.65a.725.725,0,0,0-.308.64l.275,4.594a3.449,3.449,0,0,1-2.884,3.616l-4.54.755a.733.733,0,0,0-.555.442l-1.746,4.259a3.449,3.449,0,0,1-4.167,2.006l-4.418-1.29a.725.725,0,0,0-.692.158l-3.42,3.079a3.449,3.449,0,0,1-4.625,0L30.268,62.4a.723.723,0,0,0-.692-.158l-4.418,1.29a3.447,3.447,0,0,1-4.167-2.006l-1.746-4.258a.725.725,0,0,0-.555-.443l-4.541-.754a3.449,3.449,0,0,1-2.883-3.616l.275-4.594a.727.727,0,0,0-.309-.64L7.47,44.566a3.449,3.449,0,0,1-1.029-4.508l2.241-4.02a.726.726,0,0,0,0-.711l-2.241-4.02A3.449,3.449,0,0,1,7.47,26.8l3.763-2.65a.727.727,0,0,0,.308-.64l-.275-4.594A3.449,3.449,0,0,1,14.149,15.3l4.541-.755a.726.726,0,0,0,.556-.443l1.745-4.258a3.451,3.451,0,0,1,4.167-2.006l4.418,1.29a.724.724,0,0,0,.692-.158L33.688,5.89a3.45,3.45,0,0,1,4.625,0l3.42,3.079a.731.731,0,0,0,.692.158l4.419-1.29a3.45,3.45,0,0,1,4.167,2.006L52.756,14.1a.733.733,0,0,0,.555.443l4.54.754a3.45,3.45,0,0,1,2.884,3.616l-.275,4.594a.724.724,0,0,0,.308.639l3.763,2.65a3.449,3.449,0,0,1,1.029,4.508Zm-.358-6.3L59.2,26.379a3.434,3.434,0,0,1-1.46-3.032l.275-4.594a.729.729,0,0,0-.609-.763l-4.54-.754a3.434,3.434,0,0,1-2.631-2.1l-1.746-4.258a.726.726,0,0,0-.879-.423l-4.418,1.29A3.437,3.437,0,0,1,39.909,11l-3.42-3.08a.728.728,0,0,0-.976,0L32.092,11a3.435,3.435,0,0,1-3.281.749l-4.418-1.29a.726.726,0,0,0-.879.423l-1.746,4.258a3.437,3.437,0,0,1-2.631,2.1l-4.541.754a.728.728,0,0,0-.609.763l.275,4.594a3.433,3.433,0,0,1-1.46,3.032L9.04,29.028a.728.728,0,0,0-.217.951L11.064,34a3.434,3.434,0,0,1,0,3.365l-2.241,4.02a.728.728,0,0,0,.217.951l3.763,2.65a3.434,3.434,0,0,1,1.46,3.032l-.275,4.594a.729.729,0,0,0,.609.763l4.541.754a3.435,3.435,0,0,1,2.631,2.1l1.746,4.259a.728.728,0,0,0,.879.423l4.418-1.29a3.485,3.485,0,0,1,.978-.141,3.431,3.431,0,0,1,2.3.89l3.421,3.079a.728.728,0,0,0,.976,0l3.42-3.079a3.434,3.434,0,0,1,3.282-.749l4.418,1.29a.727.727,0,0,0,.879-.423l1.746-4.258a3.435,3.435,0,0,1,2.631-2.1l4.54-.754a.728.728,0,0,0,.609-.763l-.275-4.594a3.435,3.435,0,0,1,1.46-3.033l3.763-2.65a.728.728,0,0,0,.217-.951l-2.241-4.02a3.434,3.434,0,0,1,0-3.365l2.241-4.02A.728.728,0,0,0,62.962,29.028Z" fill="#d5e6fb"/>
  </g>
</svg>
