<svg xmlns="http://www.w3.org/2000/svg" width="27.109" height="35" viewBox="0 0 27.109 35">
  <g id="ico_donhangmoi_blue" transform="translate(-55.25)">
    <g id="Group_679" data-name="Group 679" transform="translate(55.25)">
      <path id="Path_388" data-name="Path 388" d="M80.88,5.806H76.517L76.26,3.649a1.385,1.385,0,0,0-1.414-1.264H70.3V1.493a1.493,1.493,0,1,0-2.985,0v.893H62.556a1.436,1.436,0,0,0-1.414,1.264l-.257,2.235H56.743A1.5,1.5,0,0,0,55.25,7.377v26.13A1.5,1.5,0,0,0,56.743,35H80.866a1.609,1.609,0,0,0,1.493-1.493V7.3A1.48,1.48,0,0,0,80.88,5.806ZM63.905,5.285h9.677l.45,3.649h-10.5Zm15.483,26.88H58.249V8.862h2.314l-.15,1.343a1.494,1.494,0,0,0,1.493,1.635h13.84a1.335,1.335,0,0,0,1.343-1.493c0-.15-.214-1.564-.214-1.564h2.514Z" transform="translate(-55.25)" fill="#2f80ed"/>
      <path id="Path_389" data-name="Path 389" d="M177.561,241.25l-3.8,3.721-2.007-2.007a1.475,1.475,0,1,0-2.085,2.085l3.049,3.049a1.523,1.523,0,0,0,2.157,0l4.763-4.763a1.445,1.445,0,0,0,0-2.085A1.425,1.425,0,0,0,177.561,241.25Z" transform="translate(-161.086 -223.604)" fill="#2f80ed"/>
    </g>
  </g>
</svg>
