<svg xmlns="http://www.w3.org/2000/svg" width="34.941" height="35" viewBox="0 0 34.941 35">
  <g id="ico_dangxuly_red" transform="translate(-0.411)">
    <g id="Group_680" data-name="Group 680" transform="translate(0.411)">
      <path id="Path_390" data-name="Path 390" d="M35.206,215.649,32.6,207.978a1.473,1.473,0,0,0-1.193-.971l-13.243-1.629a3.414,3.414,0,0,0-.657.014L4.378,207.007a1.461,1.461,0,0,0-1.193.971L.506,215.871a1.448,1.448,0,0,0,1.343,1.936l2.086-.343v5.107A1.436,1.436,0,0,0,5.2,223.985L17.635,225.7h.521l12.507-1.714a1.386,1.386,0,0,0,1.264-1.414v-5l1.714.236A1.5,1.5,0,0,0,35.206,215.649Zm-5.136-5.886,1.636,4.764-8.786-1.193-2.529-4.764Zm-24.5,0,9.679-1.193-2.529,4.764-8.786,1.193Zm1.343,7.293,7-.964a1.346,1.346,0,0,0,1.114-.743l1.343-2.536v9.757l-9.457-1.264v-4.25Zm22.043,4.25-9.607,1.264v-9.657l1.264,2.507a1.675,1.675,0,0,0,1.114.743l7.221.993v4.15Z" transform="translate(-0.411 -190.699)" fill="red"/>
      <path id="Path_391" data-name="Path 391" d="M158.947,9.157l4.693,4.171a1.434,1.434,0,0,0,1.936,0l4.693-4.171a1.479,1.479,0,1,0-1.936-2.236L166.1,8.929V1.493a1.493,1.493,0,1,0-2.986,0v7.45l-2.229-2.014a1.476,1.476,0,1,0-1.936,2.229Z" transform="translate(-147.159)" fill="red"/>
    </g>
  </g>
</svg>
